PathFileType	3	(X/Y/Z)	D:\VICON_DB\Goncalves\Pilot01\09-03-2026\walking_02.trc
DataRate	CameraRate	NumFrames	NumMarkers	Units	OrigDataRate	OrigDataStartFrame	OrigNumFrames
200.0	200.0	13	34	mm	200.0	326	1300	
Frame#	Time	LASI			RASI			LPSI			RPSI			LTHI			LTHAP			LTHAD			LKNE			LKNM			LTIB			LTIAP			LTIAD			LANK			LMED			LHEE			LTOE			LFMH			LSMH			LVMH			RTHI			RTHAP			RTHAD			RKNE			RKNM			RTIB			RTIAP			RTIAD			RANK			RMED			RHEE			RTOE			RFMH			RSMH			RVMH			
		X1	Y1	Z1	X2	Y2	Z2	X3	Y3	Z3	X4	Y4	Z4	X5	Y5	Z5	X6	Y6	Z6	X7	Y7	Z7	X8	Y8	Z8	X9	Y9	Z9	X10	Y10	Z10	X11	Y11	Z11	X12	Y12	Z12	X13	Y13	Z13	X14	Y14	Z14	X15	Y15	Z15	X16	Y16	Z16	X17	Y17	Z17	X18	Y18	Z18	X19	Y19	Z19	X20	Y20	Z20	X21	Y21	Z21	X22	Y22	Z22	X23	Y23	Z23	X24	Y24	Z24	X25	Y25	Z25	X26	Y26	Z26	X27	Y27	Z27	X28	Y28	Z28	X29	Y29	Z29	X30	Y30	Z30	X31	Y31	Z31	X32	Y32	Z32	X33	Y33	Z33	X34	Y34	Z34	
326	1.625	356.10571	871.36041	-2071.1643	98.862305	884.85718	-2064.5862				186.34679	939.41101	-2259.5645	369.30505	703.5816	-2024.0411	390.18301	757.94073	-2069.6582	395.83929	628.09656	-2031.9342	370.95596	469.0585	-2014.9916				366.59448	319.77908	-2140.9102	312.73508	356.19144	-2039.8752	333.73001	277.80753	-2122.428	319.99875	178.21594	-2285.3748				264.28442	202.84286	-2320.7957	295.01511	131.77328	-2220.8545	264.79202	76.357811	-2198.4958				341.85129	68.231674	-2220.5139	58.921375	614.43414	-2084.575	70.42289	745.26495	-2061.3938	97.650238	656.54962	-2034.8038	92.701416	479.41125	-2116.7034				96.142342	280.61667	-2138.9766	144.37048	333.6882	-2098.114	151.90483	253.00336	-2110.0356	140.51248	55.073021	-2201.0991				181.22571	55.814175	-2241.9946	167.60234	63.956036	-2113.0461	199.90454	47.039291	-2064.9133				125.59122	15.542508	-2071.0139
327	1.63	356.0253	872.11853	-2065.6992	98.782104	885.01208	-2059.5881				186.55324	940.2865	-2253.8672	369.06369	706.09357	-2017.0271	390.19833	759.74274	-2063.2632	395.66229	630.55292	-2023.6561	370.51855	471.84177	-2004.4813				366.57391	319.12863	-2126.6921	314.44946	356.10922	-2027.3505	333.72177	277.6131	-2107.1572	320.40756	173.4888	-2267.1853				264.63699	196.72977	-2303.4553	295.51587	129.67468	-2201.2454	265.7016	74.578636	-2177.0125				342.79324	66.180725	-2198.7195	59.126316	614.15155	-2081.6025	70.580246	744.87634	-2057.2439	97.793976	655.80139	-2031.4126	92.674263	479.33105	-2115.2244				96.107742	280.60278	-2138.4851	144.23091	333.49164	-2097.6213	151.82701	252.91464	-2109.5498	140.58292	55.221611	-2201.0835				181.40887	56.018314	-2241.9458	167.63272	63.970127	-2112.9902	199.83838	47.043022	-2064.8604				125.5599	15.514424	-2071.0264
328	1.635	355.95917	872.8241	-2060.1975	98.705582	885.12036	-2054.6021				186.81856	941.09808	-2248.1946	368.83127	708.51538	-2010.0756	390.21451	761.49194	-2056.8843	395.48431	632.95099	-2015.4872	370.08704	474.56845	-1994.209				366.5997	318.40158	-2112.5139	315.82629	356.45401	-2014.818	333.75806	277.3866	-2091.9023	320.88062	168.65224	-2248.7642				265.06107	190.45941	-2285.8613	296.09155	127.36186	-2181.468	266.63953	72.867279	-2155.3433				343.76288	64.165344	-2176.7307	59.422653	613.84741	-2078.5925	70.830032	744.44702	-2053.0669	98.078392	655.05042	-2027.9901	92.689232	479.24182	-2113.7214				96.111916	280.59125	-2137.9861	144.15797	333.30685	-2097.0918	151.79324	252.82565	-2109.0676	140.67287	55.379333	-2201.0676				181.61005	56.226723	-2241.8962	167.67461	63.987209	-2112.9324	199.78	47.047668	-2064.8098				125.53553	15.492795	-2071.0417
329	1.64	355.90604	873.47394	-2054.6614	98.631584	885.18164	-2049.6282				187.13957	941.84393	-2242.5435	368.60794	710.83972	-2003.1831	390.2327	763.18274	-2050.5171	395.30841	635.28113	-2007.4246	369.66431	477.22174	-1984.1812				366.67245	317.59961	-2098.3804	316.89481	357.17319	-2002.316	333.83789	277.13214	-2076.6704	321.41483	163.72978	-2230.1108				265.55536	184.06039	-2268.0095	296.73346	124.89921	-2161.5225	267.59674	71.246361	-2133.499				344.75095	62.205967	-2154.5554	59.80938	613.52057	-2075.5476	71.166283	743.9754	-2048.8638	98.495087	654.29492	-2024.5342	92.745262	479.14304	-2112.1921				96.15406	280.58139	-2137.4792	144.15265	333.13632	-2096.51	151.80202	252.73526	-2108.5867	140.78505	55.545063	-2201.0527				181.83186	56.438587	-2241.8447	167.72888	64.007133	-2112.8735	199.73032	47.05307	-2064.7607				125.51833	15.478078	-2071.061
330	1.645	355.86493	874.06525	-2049.0918	98.559425	885.19519	-2044.6653				187.51169	942.52344	-2236.9082	368.39359	713.06	-1996.347	390.25439	764.80908	-2044.1587	395.13766	637.53381	-1999.4664	369.25348	479.785	-1974.4032				366.79239	316.72528	-2084.2935	317.6922	358.20825	-1989.8811	333.9603	276.85425	-2061.4692	322.00723	158.74622	-2211.2246				266.11884	177.56287	-2249.8972	297.4321	122.34495	-2141.4094	268.56433	69.737656	-2111.4932				345.7486	60.322853	-2132.2048	60.284203	613.16998	-2072.4714	71.581322	743.46051	-2044.6353	99.032928	653.53326	-2021.0438	92.840698	479.03461	-2110.637				96.232727	280.57242	-2136.9641	144.21365	332.98172	-2095.8657	151.85138	252.64265	-2108.1042	140.92229	55.717648	-2201.0376				182.07669	56.653259	-2241.7893	167.79642	64.029709	-2112.8135	199.69037	47.05883	-2064.7112				125.50837	15.470621	-2071.0847
331	1.65	355.83521	874.59528	-2043.4911	98.489273	885.16046	-2039.7108				187.92885	943.13593	-2231.2834	368.18808	715.16968	-1989.5648	390.28174	766.3642	-2037.8063	394.97531	639.69818	-1991.6118	368.85757	482.24191	-1964.8792				366.95972	315.78201	-2070.2561	318.26102	359.49857	-1977.5464	334.12408	276.55777	-2046.3074	322.65503	153.72733	-2192.1062				266.75061	170.99863	-2231.5242	298.17761	119.75124	-2121.1326	269.534	68.361771	-2089.3401				346.7475	58.535862	-2109.6924	60.843521	612.79553	-2069.3669	72.065735	742.90222	-2040.3831	99.678383	652.76331	-2017.5193	92.973335	478.91678	-2109.0547				96.345901	280.56381	-2136.4395	144.33708	332.84396	-2095.1531	151.93919	252.54718	-2107.6182	141.0872	55.896011	-2201.0227				182.34669	56.870319	-2241.7295	167.87796	64.054733	-2112.7529	199.66164	47.064186	-2064.6589				125.50576	15.47067	-2071.1135
332	1.655	355.81656	875.06128	-2037.8606	98.422485	885.07709	-2034.76				188.38367	943.68054	-2225.6624	367.99179	717.1615	-1982.8356	390.31708	767.84094	-2031.4584	394.82437	641.76245	-1983.8611	368.47955	484.57663	-1955.6116				367.17447	314.77371	-2056.2712	318.64545	360.98431	-1965.3407	334.32816	276.24808	-2031.1918	323.35547	148.70006	-2172.7588				267.44977	164.40079	-2212.8911	298.96045	117.16447	-2100.6982	270.49802	67.137413	-2067.0591				347.73953	56.864132	-2087.0334	61.482426	612.39777	-2066.2385	72.608521	742.30115	-2036.1099	100.41582	651.98273	-2013.9635	93.140526	478.78995	-2107.4453				96.491333	280.55496	-2135.905	144.51694	332.72293	-2094.3689	152.06328	252.44823	-2107.1248	141.28218	56.079147	-2201.0068				182.64369	57.089725	-2241.6643	167.97418	64.081917	-2112.6919	199.6459	47.068027	-2064.6016				125.51051	15.478386	-2071.1484
333	1.66	355.80914	875.46063	-2032.2013	98.361549	884.94476	-2029.8074				188.86728	944.15576	-2220.0388	367.80588	719.02753	-1976.1591	390.36298	769.23114	-2025.114	394.68756	643.71362	-1976.2151	368.12234	486.77383	-1946.6018				367.43634	313.70496	-2042.3427	318.88821	362.60913	-1953.2899	334.57135	275.93097	-2016.1323	324.10599	143.6924	-2153.1882				268.21552	157.8035	-2194.0024	299.77155	114.62577	-2080.1165	271.4494	66.081017	-2044.672				348.71735	55.326	-2064.2461	62.194763	611.97754	-2063.0896	73.197777	741.65912	-2031.8196	101.22803	651.18829	-2010.3798	93.339386	478.65475	-2105.8074				96.666695	280.54535	-2135.3589	144.74556	332.61749	-2093.5151	152.22153	252.34532	-2106.623	141.50922	56.266205	-2200.9917				182.9691	57.311871	-2241.5935	168.08592	64.110847	-2112.6313	199.64487	47.069225	-2064.5374				125.52263	15.493831	-2071.1902
334	1.665	355.81323	875.79065	-2026.514	98.30925	884.76337	-2024.8453				189.36911	944.55908	-2214.406	367.63196	720.75916	-1969.5361	390.4216	770.52643	-2018.7731	394.56702	645.53827	-1968.6768	367.78888	488.81851	-1937.8494				367.74475	312.58093	-2028.4724	319.02859	364.32141	-1941.4142	334.85275	275.61301	-2001.1377	324.90405	138.73323	-2133.4026				269.04675	151.24165	-2174.864	300.6026	112.17139	-2059.4006	272.38187	65.206741	-2022.204				349.67392	53.938946	-2041.3508	62.973289	611.53607	-2059.9238	73.821304	740.97827	-2027.5151	102.09689	650.3772	-2006.7742	93.566818	478.51172	-2104.1394				96.869644	280.53455	-2134.7988	145.01414	332.52475	-2092.5981	152.41196	252.23795	-2106.1096	141.76996	56.456448	-2200.9771				183.32419	57.537479	-2241.5171	168.21394	64.141045	-2112.5708	199.65971	47.066723	-2064.4634				125.54218	15.516971	-2071.2395
335	1.67	355.82925	876.04889	-2020.7992	98.267776	884.53308	-2019.8682				189.87683	944.88739	-2208.7571	367.4722	722.34717	-1962.9679	390.4949	771.71814	-2012.4362	394.46454	647.22229	-1961.2493	367.48215	490.6962	-1929.3523				368.09879	311.40744	-2014.6652	319.10114	366.07562	-1929.7308	335.17157	275.3013	-1986.2188	325.74731	133.85213	-2113.4146				269.94241	144.7505	-2155.4888	301.44595	109.83331	-2038.5673	273.28979	64.526642	-1999.6829				350.603	52.719513	-2018.3711	63.809811	611.07526	-2056.7444	74.467163	740.26135	-2023.1991	103.00443	649.54706	-2003.1509	93.819633	478.36148	-2102.4395				97.09803	280.52203	-2134.2224	145.3132	332.44073	-2091.6292	152.63266	252.12573	-2105.583	142.06587	56.649261	-2200.9641				183.71016	57.767536	-2241.4348	168.35901	64.172058	-2112.5107	199.69127	47.059597	-2064.3796				125.56922	15.547706	-2071.2969
336	1.675	355.85785	876.23303	-2015.0562	98.23851	884.2547	-2014.8711				190.37608	945.13617	-2203.0859	367.32889	723.7821	-1956.4547	390.58472	772.79736	-2006.1052	394.38217	648.75128	-1953.936	367.20535	492.39319	-1921.1066				368.49744	310.19135	-2000.9248	319.13525	367.83286	-1918.2526	335.52722	275.00375	-1971.3867	326.63327	129.07915	-2093.2402				270.901	138.36499	-2135.8909	302.29504	107.63988	-2017.6384	274.16791	64.050751	-1977.1409				351.49899	51.683193	-1995.3334	64.695381	610.5968	-2053.5532	75.123741	739.5116	-2018.8739	103.93349	648.69647	-1999.5135	94.094551	478.20462	-2100.7053				97.34993	280.50735	-2133.6274	145.63362	332.3606	-2090.6213	152.88196	252.00841	-2105.0393	142.39835	56.844124	-2200.9543				184.12834	58.003117	-2241.3474	168.52179	64.203476	-2112.4512	199.73978	47.04707	-2064.2852				125.60394	15.585925	-2071.3645
337	1.68	355.89935	876.34113	-2009.2854	98.222008	883.92889	-2009.851				190.85269	945.30127	-2197.3862	367.2045	725.05457	-1949.9982	390.69229	773.75494	-1999.7825	394.32251	650.11121	-1946.7408	366.96155	493.89728	-1913.1068				368.93918	308.94043	-1987.2572	319.15506	369.56046	-1906.9886	335.91913	274.72879	-1956.6537	327.55978	124.44471	-2072.9026				271.92108	132.11928	-2116.0925	303.14438	105.61626	-1996.6393	275.01111	63.787617	-1954.6124				352.35712	50.844288	-1972.2666	65.620491	610.10266	-2050.3525	75.780106	738.73248	-2014.5411	104.86814	647.82538	-1995.8632	94.388428	478.04166	-2098.9346				97.623886	280.49023	-2133.01	145.96805	332.27982	-2089.5854	153.15842	251.88577	-2104.4771	142.76895	57.040619	-2200.9478				184.58026	58.245354	-2241.2539	168.70305	64.234932	-2112.3921	199.80513	47.02861	-2064.1802				125.6465	15.631547	-2071.4419
338	1.685	355.95416	876.37152	-2003.4865	98.218193	883.55707	-2004.806				191.29808	945.38013	-2191.6555	367.10205	726.15424	-1943.5983	390.81876	774.58179	-1993.4708	394.28851	651.28864	-1939.6671	366.75403	495.19794	-1905.3456				369.42249	307.66394	-1973.6697	319.17996	371.2319	-1895.9454	336.34668	274.48526	-1942.032	328.52472	119.97903	-2052.4292				273.00089	126.04667	-2096.1196	303.98938	103.78452	-1975.5986	275.81488	63.744804	-1932.1343				353.17346	50.215874	-1949.2034	66.57515	609.59467	-2047.1437	76.426338	737.92706	-2010.2017	105.79375	646.9342	-1992.2007	94.698303	477.87289	-2097.1235				97.918831	280.47031	-2132.3667	146.31128	332.1947	-2088.5295	153.46078	251.75771	-2103.8923	143.1794	57.238499	-2200.9453				185.06755	58.495434	-2241.1541	168.90359	64.266037	-2112.333	199.88661	47.004055	-2064.0654				125.69712	15.684546	-2071.5308
